<svg id="Layer_1" xmlns="http://www.w3.org/2000/svg" viewBox="0 0 1210.4 1179"><style>.st1{fill:#ce872a}</style><path d="M1168.4 199.2c-1.6-19.4-6-37.8-14-55.5-12.6-27.8-31.7-49.9-58-65.7-18-10.8-37.6-17.6-57.8-23-22.3-5.9-44.8-4.3-67.2-1.6-17.9 2.2-35.6 5.9-53.1 10.5-12.7 3.4-25 2-36.8-4.2-4.5-2.3-9.3-4.1-14.1-5.7-19.4-6.7-39.7-8.8-60-11.1-19.8-2.3-39.7-3.4-59.6-3.8-31.8-.5-63.5.7-95.2 3.8-14.5 1.4-29 3-43.3 5.3-24.7 4-49.4 8.6-74.4 10.9-22.4 2.1-44.8 3.5-67.2 2.5-16.2-.7-32.3-.9-48.4-.5-13.9.3-27.5 2.9-40.9 6.6-16.3 4.5-30.8 12.7-45.6 20.4-15.3 8-31.3 13.2-48.8 14.1-13.9.7-27.8.7-41.6 3.7-29.1 6.4-53.9 19.4-71.7 44.3-15.5 21.7-23.3 45.9-23.9 72.3-.3 12.7 1.5 25.3 4.7 37.7 10.5 40.9 37.3 65.5 76.8 78.1-.8 1 19.8 5.9 28.5 4.9 4.2-.5 7.2-2.9 11.1-3.5 11-1.5 20.6-6.5 30-11.9 7.8-4.4 15.7-8 24.5-10.1 9.6-2.3 19-5.3 28.5-8 1.2-.4 30.3-8.7 44.5-9.5.4-.1.8-.1 1.2-.2 21-2.4 41.9-4.9 62.8-7.3.5-.1 39.8-8.7 44-10.6 3.3-1.4 7.1-1.5 10.2-3.6.9-.6 36.7-13.9 38.5-14.5 15.8-5.2 31.9-6.5 48.4-3.7 14.6 2.5 29.2 5.6 44.2 5.8 16.6.2 32.5-3.6 48.6-6.7 18.6-3.6 36.8-4 54.4 4.1 8.9 4.1 16.4 10.3 23.9 16.5 11.8 9.8 24.3 18.4 38.7 23.6 9.6 3.5 19.8 1.8 29.8-.1 3.2-.6 6.4-1.6 9.7-1.9 5.6-.4 10 1.3 14.2 5.6 8.9 8.9 19.8 14.5 32.3 17.1 16.3 3.3 32.2 8.1 48 13 8.5 2.6 17.1 4.8 25.7 7.2 1.4.4 27.8 7.7 33.5 8.1 15.7 1.2 31.4 3.1 47.3 1.6 1.3-.1 33.4-6.3 37.6-7.8 39.5-13.7 66.2-39.7 75.9-81.3 5-21.5 5.9-43.6 4.1-65.9zM944.8 312.4c-16-4.9-32.2-8.8-48.5-12.8-7.2-1.8-12.7-6.8-18-11.9-16.5-15.9-22.4-36-23-58.1-.5-16.3-.8-32.7 2-48.8 2.6-15.3 6.8-30.1 17.6-42.1 4.9-5.5 5.1-11.3 1-17.2-3-4.3-10.2-6.7-15.7-4-5.6 2.7-9 8.4-12.2 13.5-9.9 15.7-14.8 33.1-16.6 51.5-1.4 13.8-2.1 27.5-1.8 41.3.4 17.5 2.4 34.8 8.9 51.2 1.4 3.6-.1 4.2-2.8 5-13.5 4.3-24.8-.8-35.2-8.5-2.9-2.1-4.4-6.1-6.6-9.3-12.2-17.3-14.7-36.4-11.9-56.9 1.6-12 4.7-23.3 9.1-34.4 3.6-9.1-1.1-19-13.7-17.9-5.2.5-8.1 3.6-10.1 7.8-4.9 10.3-7.9 21.1-9.8 32.3-2.7 15.6-2.7 31.4-1.1 47.5-7.1-1.7-13.4-4.4-20.2-5.7-15.3-2.9-30.4-2.2-45.5.7-15.6 2.9-31.1 6.9-47.2 6.6-12.5-.2-24.6-3.3-37-4.8-3.7-.4-5.9-3.5-8.6-5.7-16.1-13.5-22.2-37.7-14.5-57.3 3-7.5.2-14.9-6.7-17.4-7.9-3-15.4 1.1-18.4 10.3-7.3 22-4 43.2 5.8 63.7 2.6 5.5 2.9 5.2-3.1 6.2-13.7 2.3-26.5 7.4-39.5 11.9-19.6 6.8-39.1 14-59.6 17.7-14.4 2.6-28.9 4.1-43.5 5.3-2.5.2-4-1.1-5.6-2.6-10.8-10.4-17.9-23.5-25.2-36.3-10.6-18.5-16.1-38.4-16.2-59.8 0-6.9 2.1-13.4 3.6-20 1.8-7.7-1.3-14-7.5-15.8-7.5-2.2-14.2 1.2-17.1 8.9-4.1 10.4-4.7 21.3-4.5 32.4.6 33.6 14.4 62.3 32.5 89.6 5.2 7.9 5.2 7.7-4 10-22.1 5.4-43.6 12.5-65.5 18.4-10.1 2.7-19.1 7.6-27.8 12.9-12.7 7.6-26.2 9.4-40.2 6.2-21.5-4.9-39.9-15.6-52.9-33.7-8.9-12.4-13.5-26.8-15.4-42-2.7-21.8-.1-42.5 10.2-62.3 14.2-27.5 37.1-42.4 66.8-47.9 3.9-.7 9-2.8 11.5-.7 3.1 2.6-.9 7.1-1.8 10.7-4.4 17.7-6.9 35.5-5.9 53.7 1.3 22.4 7 43.4 19.9 62.1 4.5 6.6 12.6 8 19.2 3.6 4.9-3.3 6.3-12.1 2.4-18-15.4-23.5-18.7-49.2-14.2-76.4 1.4-8.7 3.1-17.2 6-25.6 2.9-8.4 8.7-13.1 16.8-14.4 12.3-2 23.4-6.8 34.6-11.9 12.5-5.7 24.2-13.2 37.1-18 10.1-3.8 20.3-7.1 31.6-7.4-2.3 10.7-5.2 20.9-6 31.6-1 13.1.9 25.9 3.1 38.6.9 5.5 1.4 11.2 5.1 15.9 3.3 4.1 9.3 5.7 14.8 3.9 4.9-1.6 7.4-5.3 7.6-11.1.3-7.4-3-14.2-4-21.5-2.5-17.3-1.8-34 5.6-50.3 2.8-6.3 7.4-9.1 14-8.9 12.3.2 24.6.9 36.9.8 25.6-.2 51.1-2 76.5-5.5 23.8-3.3 47.4-8.3 71.3-10.9 2.1-.2 4.8-1.5 6 .3 1.1 1.6-1.2 3.5-2.2 5.2C625 95 621.7 116 621.7 137.7c0 11.1 2.7 22 6.3 32.5 2.6 7.6 9.5 10.4 17.4 7.7 6.3-2.2 9.6-8.9 7.1-15.9-8-22.4-6.3-44.4 2.5-66 5-12.2 13.5-21.5 24.3-29 2.6-1.8 5.8-1.8 8.6-1.9 15.9-.5 31.9-1.5 48.7-1.1-3.7 5.3-7 9.8-9.1 15.2-4 10-3.1 20.3-2.9 30.6.1 6.3 6.7 11.5 13.1 11 8.2-.6 13.3-6.3 12.5-14.7-.5-5.2.4-10.3 1-15.4.5-4.5 3.8-7.2 6.9-9.9 5.3-4.7 11.4-8.6 15.3-14.7.8-1.2 1.9-1.2 3.1-1.1 23.7 1.7 47.3 3.8 70.5 8.9 10.4 2.3 20 6.8 29.8 10.9 12.8 5.4 26.1 7.5 39.8 4.6 21.9-4.6 43.6-9.9 65.9-12.4 24.9-2.8 49-.5 72.3 9.1 2.6 1 5.5 1.2 8.1 3.6-6.8 1-13.4.3-19.9 1.1-20 2.3-38.2 9.3-55.7 19-21.8 12.1-37.4 30.2-52 49.9-12.2 16.4-18.2 34.5-19 54.6-.7 18.4 3.7 35.9 10.3 53 4.6 11.9 11.7 22.2 19.1 32.4 3.8 5.3 7.5 10.8 12.7 16.1-5.6.3-9.5-2.1-13.6-3.4zm199.7-96.9c-.1 19.5-1.5 36.1-6.7 52.3-3.9 12.2-11.6 21-21.2 28.6-10.8 8.6-22.3 16.2-33.7 23.9-10.3 7-22.4 8.5-34.3 8.3-16.1-.2-32.1-2.7-46.6-10.6-15-8.2-25.6-20.9-35.5-34.3-12.1-16.3-20.8-34-24-54.3-2.9-17.9 0-34.4 10.4-49.2 9.2-13 18.3-26.2 30.8-36.4 14.5-11.8 30.7-20.1 48.7-25.1 9.7-2.7 19.6-3.3 29.6-3 8.7.3 17.3-.6 25.8-1.8 7.6-1.1 13.6 1 19 6 7.2 6.8 13 14.6 17.3 23.6 1.7 3.5 3.8 6.4 6.2 9.4 5.1 6.4 7.2 14.4 9.2 22.3 3.6 14.2 5.9 28.4 5 40.3z" fill="#0c0703"/><path class="st1" d="M736.6 64c-3.7 5.3-7 9.8-9.1 15.2-4 10-3.1 20.3-2.9 30.6.1 6.3 6.7 11.5 13.1 11 8.2-.6 13.3-6.3 12.5-14.7-.5-5.2.4-10.3 1-15.4.5-4.5 3.8-7.2 6.9-9.9 5.3-4.7 11.4-8.6 15.3-14.7.8-1.2 1.9-1.2 3.1-1.1 23.7 1.7 47.3 3.8 70.5 8.9 10.4 2.3 20 6.8 29.8 10.9 12.8 5.4 26.1 7.5 39.8 4.6 21.9-4.6 43.6-9.9 65.9-12.4 24.9-2.8 49-.5 72.3 9.1 2.6 1 5.5 1.2 8.1 3.6-6.8 1-13.4.3-19.9 1.1-20 2.3-38.2 9.3-55.7 19-21.8 12.1-37.4 30.2-52 49.9-12.2 16.4-18.2 34.5-19 54.6-.7 18.4 3.7 35.9 10.3 53 4.6 11.9 11.7 22.2 19.1 32.4 3.8 5.3 7.5 10.8 12.7 16.1-5.6.6-9.6-1.9-13.6-3.1-16-4.9-32.2-8.8-48.5-12.8-7.2-1.8-12.7-6.8-18-11.9-16.5-15.9-22.4-36-23-58.1-.5-16.3-.8-32.7 2-48.8 2.6-15.3 6.8-30.1 17.6-42.1 4.9-5.5 5.1-11.3 1-17.2-3-4.3-10.2-6.7-15.7-4-5.6 2.7-9 8.4-12.2 13.5-9.9 15.7-14.8 33.1-16.6 51.5-1.4 13.8-2.1 27.5-1.8 41.3.4 17.5 2.4 34.8 8.9 51.2 1.4 3.6-.1 4.2-2.8 5-13.5 4.3-24.8-.8-35.2-8.5-2.9-2.1-4.4-6.1-6.6-9.3-12.2-17.3-14.7-36.4-11.9-56.9 1.6-12 4.7-23.3 9.1-34.4 3.6-9.1-1.1-19-13.7-17.9-5.2.5-8.1 3.6-10.1 7.8-4.9 10.3-7.9 21.1-9.8 32.3-2.7 15.6-2.7 31.4-1.1 47.5-7.1-1.7-13.4-4.4-20.2-5.7-15.3-2.9-30.4-2.2-45.5.7-15.6 2.9-31.1 6.9-47.2 6.6-12.5-.2-24.6-3.3-37-4.8-3.7-.4-5.9-3.5-8.6-5.7-16.1-13.5-22.2-37.7-14.5-57.3 3-7.5.2-14.9-6.7-17.4-7.9-3-15.4 1.1-18.4 10.3-7.3 22-4 43.2 5.8 63.7 2.6 5.5 2.9 5.2-3.1 6.2-13.7 2.3-26.5 7.4-39.5 11.9-19.6 6.8-39.1 14-59.6 17.7-14.4 2.6-28.9 4.1-43.5 5.3-2.5.2-4-1.1-5.6-2.6-10.8-10.4-17.9-23.5-25.2-36.3-10.6-18.5-16.1-38.4-16.2-59.8 0-6.9 2.1-13.4 3.6-20 1.8-7.7-1.3-14-7.5-15.8-7.5-2.2-14.2 1.2-17.1 8.9-4.1 10.4-4.7 21.3-4.5 32.4.6 33.6 14.4 62.3 32.5 89.6 5.2 7.9 5.2 7.7-4 10-22.1 5.4-43.6 12.5-65.5 18.4-10.1 2.7-19.1 7.6-27.8 12.9-12.7 7.6-26.2 9.4-40.2 6.2-21.5-4.9-39.9-15.6-52.9-33.7-8.9-12.4-13.5-26.8-15.4-42-2.7-21.8-.1-42.5 10.2-62.3 14.2-27.5 37.1-42.4 66.8-47.9 3.9-.7 9-2.8 11.5-.7 3.1 2.6-.9 7.1-1.8 10.7-4.4 17.7-6.9 35.5-5.9 53.7 1.3 22.4 7 43.4 19.9 62.1 4.5 6.6 12.6 8 19.2 3.6 4.9-3.3 6.3-12.1 2.4-18-15.4-23.5-18.7-49.2-14.2-76.4 1.4-8.7 3.1-17.2 6-25.6 2.9-8.4 8.7-13.1 16.8-14.4 12.3-2 23.4-6.8 34.6-11.9 12.5-5.7 24.2-13.2 37.1-18 10.1-3.8 20.3-7.1 31.6-7.4-2.3 10.7-5.2 20.9-6 31.6-1 13.1.9 25.9 3.1 38.6.9 5.5 1.4 11.2 5.1 15.9 3.3 4.1 9.3 5.7 14.8 3.9 4.9-1.6 7.4-5.3 7.6-11.1.3-7.4-3-14.2-4-21.5-2.5-17.3-1.8-34 5.6-50.3 2.8-6.3 7.4-9.1 14-8.9 12.3.2 24.6.9 36.9.8 25.6-.2 51.1-2 76.5-5.5 23.8-3.3 47.4-8.3 71.3-10.9 2.1-.2 4.8-1.5 6 .3 1.1 1.6-1.2 3.5-2.2 5.2C625 95 621.7 116 621.7 137.7c0 11.1 2.7 22 6.3 32.5 2.6 7.6 9.5 10.4 17.4 7.7 6.3-2.2 9.6-8.9 7.1-15.9-8-22.4-6.3-44.4 2.5-66 5-12.2 13.5-21.5 24.3-29 2.6-1.8 5.8-1.8 8.6-1.9 15.9-.5 31.9-1.5 48.7-1.1z"/><path class="st1" d="M1144.5 215.5c-.1 19.5-1.5 36.1-6.7 52.3-3.9 12.2-11.6 21-21.2 28.6-10.8 8.6-22.3 16.2-33.7 23.9-10.3 7-22.4 8.5-34.3 8.3-16.1-.2-32.1-2.7-46.6-10.6-15-8.2-25.6-20.9-35.5-34.3-12.1-16.3-20.8-34-24-54.3-2.9-17.9 0-34.4 10.4-49.2 9.2-13 18.3-26.2 30.8-36.4 14.5-11.8 30.7-20.1 48.7-25.1 9.7-2.7 19.6-3.3 29.6-3 8.7.3 17.3-.6 25.8-1.8 7.6-1.1 13.6 1 19 6 7.2 6.8 13 14.6 17.3 23.6 1.7 3.5 3.8 6.4 6.2 9.4 5.1 6.4 7.2 14.4 9.2 22.3 3.6 14.2 5.9 28.4 5 40.3z"/></svg>