<svg id="Layer_1" xmlns="http://www.w3.org/2000/svg" viewBox="0 0 1210.4 1179"><style>.st0{fill:#0c0703}.st2{fill:#ce872a}.st3{fill:#d93627}.st4{fill:#0a0401}</style><path class="st0" d="M228.2 338.4c-39.5-12.6-66.3-37.3-76.8-78.1-3.2-12.4-5-25-4.7-37.7.6-26.4 8.4-50.6 23.9-72.3 17.7-24.9 42.6-37.9 71.7-44.3 13.7-3 27.7-2.9 41.6-3.7 17.5-.9 33.5-6.1 48.8-14.1 14.8-7.7 29.3-15.9 45.6-20.4 13.4-3.7 27-6.3 40.9-6.6 16.1-.4 32.3-.2 48.4.5 22.4 1 44.8-.4 67.2-2.5 25-2.3 49.6-6.9 74.4-10.9 14.3-2.3 28.8-3.9 43.3-5.3 31.7-3.1 63.4-4.3 95.2-3.8 19.9.3 39.8 1.5 59.6 3.8 20.3 2.3 40.6 4.4 60 11.1 4.8 1.7 9.6 3.4 14.1 5.7 11.8 6.2 24.1 7.5 36.8 4.2 17.5-4.6 35.2-8.3 53.1-10.5 22.4-2.8 44.9-4.3 67.2 1.6 20.2 5.3 39.8 12.1 57.8 23 26.3 15.8 45.4 37.8 58 65.7 8 17.7 12.5 36.1 14 55.5 1.8 22.3.9 44.4-4.2 66.2-9.7 41.6-36.5 67.5-75.9 81.3-4.2 1.5-6.4 3.5-8.1 7.3-4.2 9.4-6.8 19.4-9.6 29.3-5.4 19.2-17.3 33.8-31.4 47.1-15.1 14.3-31.9 26.7-45.8 42.2-11.7 13-23.5 25.8-36.3 37.7-18.2 17-36.8 33.7-55 50.7-9.7 9.1-19.1 18.5-28.6 27.8l-43.5 42.6c-11.9 11.6-23.6 23.4-35.7 34.9-20.3 19.2-40.3 38.7-60.9 57.5-12.5 11.4-25.2 22.7-38 33.8-15 13.1-30.6 25.4-46.6 37.3-12.7 9.5-25.8 18.4-39.4 26.6-2.3 1.4-3.3 2.7-2.2 5.8 4.9 14.5 8.8 29.4 10.6 44.6 2.9 24.1 1.4 47.5-15.9 66.8-9.9 11.1-22.8 16.7-37.1 20.4-30.3 7.7-57.5.5-83.2-15.5-4.1-2.6-7.8-7.9-12.6-7-4.2.8-7.9 5.2-11.6 8.2-20 16.2-39.8 32.5-59.9 48.6-13.4 10.8-27.1 21.4-40.8 31.8-2.9 2.2-3 4.5-2 7.5 5.1 16.7 5.7 33.5-2.5 49.3-18.5 35.6-59.6 39.3-84.6 10-2.1-2.5-3-3.2-6.1-.9-21.1 15.4-41.9 31.3-65.3 43.2-10.9 5.6-21.9 10.7-34.6 10.9-11.1.2-20.2-4.3-28.4-11-8.4-6.8-16-14.4-20.7-24.4-1.1-2.3-2.8-1.6-4.7-1.3-13.6 2.7-27.2 2.2-40.2-2.8-19.3-7.4-29.6-22.7-33.9-42.2-7.6-34.3 5.7-61.4 29.8-84.7 7.7-7.4 16.4-13.5 24-21 8.2-8 9.1-17.6 7.4-28-2.7-16.4-10.7-30.8-17.7-45.4-7.1-14.9-11.4-30.5-13.6-46.8-2.6-18.7-2.4-37.4-1-56.2 1.6-20.9 8.8-39.7 20.9-56.9 10.1-14.4 21.4-27.8 30.8-42.6 6.4-10 9.2-21.1 10.3-32.7 1.5-15.9.2-32 2.1-47.8 2.7-23.6 10.4-45.6 22.4-66.1 12.6-21.4 28.3-40.4 45.7-58 5.4-5.5 10.4-11.5 15.1-17.8 7.5-10.2 8.3-20.9 4.1-32.6-3.1-8.8-5.2-18-5.4-27.4-.6-22.8 6.1-43 19.7-61.2zm384 361.5c15.4.6 33.9-2 51.4-9.3 11.9-5 23.1-11.3 29.9-23 10.9-18.9 10.7-39.5 9.3-60.3-.6-8.8-1.6-17.7 1.9-26 5.6-13.7 17.5-19.4 31-22.4 16.5-3.6 33.5-5.1 49.8-10.1 22.2-6.8 40.7-18.3 52.6-39 6.1-10.5 12.5-20.9 18.9-31.3 5.5-9 11.3-17.9 19.5-24.8 13.4-11.3 29.6-17.4 45.9-23 20.2-7 35.9-18.9 44.5-39.1 6.1-14.2 6.6-29.2 6.6-44.3 0-2.6-1.9-2.4-3.4-2.8-8.5-2.4-17.2-4.6-25.7-7.2-15.9-4.9-31.8-9.7-48-13-12.5-2.5-23.4-8.2-32.3-17.1-4.2-4.2-8.5-5.9-14.2-5.6-3.3.2-6.5 1.2-9.7 1.9-9.9 1.9-20.1 3.6-29.8.1-14.4-5.2-26.9-13.8-38.7-23.6-7.4-6.2-15-12.5-23.9-16.5-17.6-8.1-35.9-7.7-54.4-4.1-16.1 3.1-32 6.9-48.6 6.7-15-.1-29.6-3.3-44.2-5.8-16.5-2.8-32.6-1.5-48.4 3.7-1.8.6-2.9 1.7-3.7 3.6-6.9 16.7-14.9 32.8-23.6 48.7-8.6 15.7-19.1 30-31.4 43-16.1 17-34.7 30.3-56.6 39.1-15.5 6.2-31.4 8.3-47.7 5.4-21.5-3.7-36.4-18.5-40.1-39.6-3-17.5-2.4-34.5 4.9-51 .5-1.2 1.3-2.7.5-3.8-1-1.3-2.4-.2-3.6.2-9.5 2.8-18.9 5.8-28.5 8-8.8 2.1-16.7 5.6-24.5 10.1-9.4 5.4-19.1 10.4-30 11.9-3.9.5-7.7 1-11.1 3.5-11.5 8.1-18.3 19.4-22 32.6-2.8 10-4.7 20.3-2.2 30.9 2.5 10.9 6.7 21.4 7.2 32.8.2 4.1 3.5 3.2 5.4 1.8 4.9-3.6 10.4-5.6 15.9-7.8 13.5-5.3 27.5-7.5 41.7-4.1 17.9 4.3 31.2 14.2 39.4 31.3 6.3 13.2 8.6 26.5 6.4 40.8-2.8 18.5-9.9 35.3-19.5 51.2-9.5 15.6-21.3 29-36.7 39.2-10.6 7-20.8 14.7-29.5 24.1-5.7 6.2-11.9 12-18.6 17.3-12.5 9.7-27 15.6-41.6 21.1-3.2 1.2-4.4 2.5-4.3 6 .4 10.5-.5 20.8-5 30.5-2.9 6.1-9.8 9.4-15.3 6.6-5.7-2.9-7.9-8.8-5-15.3 1.7-3.8 2.2-7.9 2.6-12 .5-5.6-.7-6.7-6.1-4.9-7.1 2.3-14.3 4.1-21.9 3.8-2.3-.1-3.4.9-3.9 2.9-3.8 14.6-12.3 26.6-21.1 38.4C111.9 725 100.1 739 92.4 756c-7.1 15.7-7.1 32.1-7 48.6 0 .8-.1 1.7 1 2 1.6.4 3-.1 4-1.4 7.9-10.2 17.8-18.1 28.3-25.3 21.9-14.8 45.3-22 71.5-12.8 16.2 5.7 26.5 17.6 31.1 33.9 3.5 12.3 3.2 25.2 2 37.9-.5 5.1-1.6 10.1-3.1 15-2.5 8.5-6 16.6-10.7 24.2-10.8 17.5-23.3 33.5-40.6 45.3-13.9 9.4-29.2 15.6-45.1 20.7-3.6 1.2-5.6 2.8-6.6 6.9-2.9 12.4-10.5 22.1-20.3 29.8-12.8 10.2-25.5 20.4-33.8 34.9-9.3 16.2-11.4 32.8-4.6 50.3 3.6 9.4 9.7 16.8 20.1 18.8 23 4.6 43.5-1.3 61.8-15.6 12.5-9.8 23.2-21.4 34.4-32.5 9.2-9.1 18.2-18.4 28.8-25.8 16.6-11.7 38.5-9 50.2 5.9 9.7 12.4 16.7 26.2 21.8 41.1 2.9 8.4 6.1 16.7 13.1 23 12 10.9 30 8.9 39.4-4.4 8.3-11.6 7.1-24.1 4.3-36.7-3.7-16.6-11.2-31.9-16.9-47.7-4.8-13.4-8.5-26.9-5-41.1 6.3-25.5 22.8-44.2 42.2-60.4 11.1-9.2 24.9-12.9 39.5-14 15.6-1.2 30.1 1.4 43.6 9.3 20.1 11.8 39 25.6 58.6 38.3 21.9 14.2 45.1 18.6 70.4 10.7 16.2-5 26.6-15 29.4-32.2 2.1-13.3 1.6-26.6-1.4-39.5-6.3-27.1-14.7-53.5-27.4-78.4-7-13.8-13.9-27.9-12.4-44.2 1.5-16.4 9.6-28.4 24.3-35.8 10.1-5 20.7-5.1 34.9-4.9zM736.6 64c-16.8-.5-32.7.6-48.7 1.1-2.8.1-6 .1-8.6 1.9-10.7 7.4-19.3 16.8-24.3 29-8.9 21.7-10.5 43.6-2.5 66 2.5 7.1-.8 13.7-7.1 15.9-7.9 2.7-14.8-.1-17.4-7.7-3.6-10.5-6.3-21.4-6.3-32.5 0-21.6 3.3-42.6 14.1-61.9.9-1.7 3.2-3.6 2.2-5.2-1.2-1.8-4-.5-6-.3-23.9 2.7-47.5 7.7-71.3 10.9-25.4 3.5-50.9 5.3-76.5 5.5-12.3.1-24.6-.5-36.9-.8-6.6-.1-11.2 2.6-14 8.9-7.3 16.2-8 33-5.6 50.3 1 7.2 4.2 14 4 21.5-.2 5.8-2.7 9.5-7.6 11.1-5.6 1.8-11.6.2-14.8-3.9-3.8-4.7-4.2-10.4-5.1-15.9-2.2-12.8-4-25.6-3.1-38.6.8-10.7 3.6-20.9 6-31.6-11.3.4-21.5 3.6-31.6 7.4-12.9 4.9-24.6 12.3-37.1 18-11.2 5.1-22.3 9.9-34.6 11.9-8.1 1.3-13.9 6-16.8 14.4-2.9 8.4-4.6 16.9-6 25.6-4.5 27.2-1.2 52.9 14.2 76.4 3.9 5.9 2.5 14.7-2.4 18-6.6 4.5-14.7 3-19.2-3.6-12.8-18.7-18.6-39.8-19.9-62.1-1-18.2 1.5-36.1 5.9-53.7.9-3.6 4.9-8.1 1.8-10.7-2.5-2.1-7.6 0-11.5.7-29.8 5.5-52.6 20.5-66.8 47.9-10.2 19.8-12.9 40.5-10.2 62.3 1.9 15.2 6.5 29.6 15.4 42 13.1 18.1 31.4 28.8 52.9 33.7 14 3.2 27.5 1.4 40.2-6.2 8.8-5.2 17.7-10.1 27.8-12.9 21.9-5.9 43.5-13.1 65.5-18.4 9.2-2.2 9.2-2 4-10-18-27.2-31.8-56-32.5-89.6-.2-11 .4-21.9 4.5-32.4 3-7.6 9.6-11.1 17.1-8.9 6.2 1.9 9.3 8.1 7.5 15.8-1.6 6.6-3.7 13.1-3.6 20 .1 21.4 5.6 41.3 16.2 59.8 7.3 12.8 14.4 25.8 25.2 36.3 1.6 1.5 3 2.8 5.6 2.6 14.6-1.2 29.1-2.7 43.5-5.3 20.5-3.7 40-10.9 59.6-17.7 13-4.5 25.8-9.6 39.5-11.9 6-1 5.7-.8 3.1-6.2-9.8-20.5-13.1-41.6-5.8-63.7 3.1-9.3 10.5-13.3 18.4-10.3 6.8 2.6 9.6 9.9 6.7 17.4-7.7 19.6-1.7 43.9 14.5 57.3 2.6 2.2 4.9 5.2 8.6 5.7 12.3 1.5 24.4 4.5 37 4.8 16.1.3 31.6-3.6 47.2-6.6 15.2-2.8 30.3-3.6 45.5-.7 6.8 1.3 13.1 4 20.2 5.7-1.7-16.1-1.6-31.9 1.1-47.5 1.9-11.1 4.9-22 9.8-32.3 2-4.2 4.9-7.4 10.1-7.8 12.6-1.1 17.3 8.8 13.7 17.9-4.4 11.2-7.5 22.5-9.1 34.4-2.7 20.5-.2 39.7 11.9 56.9 2.2 3.1 3.7 7.1 6.6 9.3 10.4 7.7 21.7 12.8 35.2 8.5 2.6-.8 4.2-1.4 2.8-5-6.6-16.4-8.6-33.7-8.9-51.2-.3-13.8.4-27.6 1.8-41.3 1.9-18.5 6.8-35.8 16.6-51.5 3.2-5.2 6.6-10.8 12.2-13.5 5.5-2.7 12.7-.3 15.7 4 4.1 5.9 4 11.7-1 17.2-10.8 12-15 26.8-17.6 42.1-2.7 16.2-2.5 32.5-2 48.8.7 22.1 6.6 42.2 23 58.1 5.3 5.1 10.8 10.2 18 11.9 16.2 4 32.5 7.9 48.5 12.8 4.1 1.2 8 3.7 13.6 3.1-5.2-5.3-8.9-10.7-12.7-16.1-7.4-10.2-14.5-20.5-19.1-32.4-6.6-17.1-11-34.6-10.3-53 .8-20 6.7-38.1 19-54.6 14.6-19.6 30.2-37.8 52-49.9 17.5-9.7 35.7-16.7 55.7-19 6.5-.7 13-.1 19.9-1.1-2.6-2.4-5.5-2.5-8.1-3.6-23.3-9.6-47.4-11.9-72.3-9.1-22.3 2.5-44 7.8-65.9 12.4-13.8 2.9-27 .8-39.8-4.6-9.8-4.1-19.4-8.6-29.8-10.9-23.2-5.2-46.9-7.2-70.5-8.9-1.1-.1-2.3-.1-3.1 1.1-3.9 6.2-10 10.1-15.3 14.7-3.1 2.7-6.4 5.4-6.9 9.9-.5 5.1-1.5 10.1-1 15.4.8 8.4-4.3 14.1-12.5 14.7-6.4.4-12.9-4.7-13.1-11-.2-10.3-1.1-20.6 2.9-30.6 1.8-4.9 5-9.4 8.8-14.8zM609.4 723.8c-3.8 0-7.7-.3-11.5.1-5.1.4-10.3 1.1-14.2 4.9-6.8 6.6-8.7 14.5-5.9 23.6 4.8 15.7 14.2 29.4 19.8 44.7.8 2.1 1.7 1.6 3.2.6 13.6-8.8 26.8-18 39.7-27.7 21.4-16.1 41.6-33.6 61.8-51.2 13.5-11.8 26.5-24.1 39.5-36.5 19-18.1 37.9-36.4 56.8-54.6 13.9-13.4 27.1-27.4 41.3-40.6 14.1-13.1 27.3-27.2 41.4-40.3 10.6-9.8 20.8-20 31.5-29.7 18.8-17.1 37.7-34.2 54.7-53.2 14.1-15.8 30-29.7 45.7-43.8 10-9 20.2-17.9 27.3-29.6 6.4-10.6 8.1-23 12.6-34.4.9-2.2-1-1.9-2.3-1.8-15.8 1.4-31.5-.4-47.3-1.6-6.2-.5-6.1-.7-6.2 5.4-.3 17.5-3.5 34.2-11.8 49.8-8.6 16.2-20.7 28.6-36.9 37.2-11.5 6.1-23.9 9.7-35.8 14.8-9.6 4.1-19.2 8.7-25.8 17.2-9.4 12.2-16.7 25.8-24.5 39.1-9.3 15.9-20.6 30.2-36.3 40.3-17.7 11.4-37.7 17-58.1 21.1-9.1 1.8-18.4 2.7-27.5 4.6-12.2 2.5-14.9 5.6-14.2 17.9.9 16.3 1.8 32.5-1.2 48.7-3 16.3-8.6 31.4-20.7 43.3-14.9 14.6-33.5 22.2-53.1 27.4-13.7 3.6-27.8 4.4-42 4.3zm535.1-508.3c.9-11.9-1.4-26.1-5-40.2-2-7.9-4.1-15.9-9.2-22.3-2.4-3-4.6-5.9-6.2-9.4-4.3-8.9-10.1-16.8-17.3-23.6-5.4-5.1-11.4-7.1-19-6-8.5 1.2-17.1 2.1-25.8 1.8-10-.3-19.9.2-29.6 3-18 5-34.2 13.3-48.7 25.1-12.5 10.2-21.6 23.4-30.8 36.4-10.5 14.8-13.3 31.3-10.4 49.2 3.3 20.3 11.9 38 24 54.3 10 13.4 20.5 26.1 35.5 34.3 14.5 7.9 30.5 10.4 46.6 10.6 11.9.1 24-1.3 34.3-8.3 11.4-7.7 22.9-15.4 33.7-23.9 9.6-7.6 17.3-16.4 21.2-28.6 5.2-16.3 6.6-32.8 6.7-52.4zM249.1 544.1c12-6.8 21.7-14.9 28.2-26.3 6.1-10.7 10.1-22.3 13.9-33.9 2.1-6.5 4-13.4 2.5-20.5-1.7-8.1-5.7-12.4-11.3-11.2-7.8 1.6-15.2 4.1-22.4 7.8-10.7 5.4-19.3 14.1-30.1 19.3-4.5 2.2-8 5.2-11.5 8.9-12.8 13.5-25.4 27-36.4 42.1-15.7 21.6-26.2 45.2-30.6 71.5-.5 2.8.5 3.9 3.2 3.1 2.4-.7 4.7-1.4 7.2-1.8 15.6-2.3 29.4-7.9 40.4-20.1 7.3-8.1 15.4-15.5 23.5-22.9 2.5-2.3 2.8-3.3.3-5.7-1.9-1.8-2.6-4.5-2.5-7.3.1-5.5-.2-11 .1-16.5.2-3.8.8-7.8 4.3-10.1 4.2-2.8 8.9-3.8 13.6-1.6 5.2 2.4 7.6 6.7 7.6 12.4v12.8zm147.7 355.8c-10.9.6-23.3 3.8-33.3 12.9-9.4 8.5-16.8 18.7-23.5 29.4-5.5 8.7-7.7 18.1-5.5 28.4 2.1 9.9 6 19.2 9.8 28.5 1.5 3.8 3.5 1.3 4.9.2 10.7-8.4 21.3-16.9 31.9-25.4 14.5-11.6 29-23.2 43.4-34.8 6.4-5.2 12.8-10.5 19.2-15.8 2.3-1.8 2.5-3-.5-4.6-6-3.4-11.7-7.4-17.6-11-8.2-4.9-16.9-7.8-28.8-7.8zm-235.2 220.2c1.1-.2 2.3-.4 3.4-.6 10.9-2.1 20-8.3 29.5-13.5 20.4-11.2 38.3-26 57.2-39.3 1-.7 1.8-1.1 1.1-2.7-4-8.8-7.7-17.9-13.1-26-8-12.1-14.1-13.4-25.6-4.7-13 9.9-23.8 22.3-35.3 33.8-12.2 12.2-25.1 23.6-40.4 32-1.8 1-2.3 1.7-.8 3.7 3.9 5.5 9.1 9.7 14.4 13.6 2.6 2 5.7 4.1 9.6 3.7zM94.2 858.8c.9 7.2 6.1 14.6 9.4 22.8.6 1.5 1.9 1 2.9.4 11.1-6.8 23.5-11.5 33.5-20.5 13.5-12.1 23.7-26 28.6-43.7 2.4-8.8 2.6-17.9 3.7-26.9.4-3.5-2.2-4.3-4.9-4-6.7.7-13.4 1.7-19.8 4.1-14.9 5.8-26.4 16.1-37.3 27.3-10.3 10.8-15.1 23.9-16.1 40.5zm225.7-389.5c-.5 3.7-.9 6.2-1.3 8.6-1.6 11.8-6.4 22.5-10.3 33.6-8.7 24.6-24.1 43.4-47.4 55.5-13.2 6.9-24 16.7-34 27.6-9.5 10.4-19.8 19.9-32.9 26-9.9 4.7-20.6 5.4-30.9 8.2-12.5 3.5-13.1 3.4-12.9 12.4.1 3.7 1.1 4 4.4 3.2 6.3-1.5 12.5-3.2 18.5-5.5 13.6-5.3 27.9-8.3 41.1-15 11.1-5.5 20.4-12.9 28.7-21.7 8.6-9.1 17.8-17.3 28.2-24.4 7.2-5 14.7-9.7 20.8-15.9 16.5-16.8 27.2-37 32.4-59.9 2.5-10.9 1.8-21.5-4.4-32.7zm142.1-176c-1.6-.2-2.1-.4-2.6-.4-20.9 2.4-41.9 4.9-62.8 7.3-1.2.1-2.3.3-3.2 1.1-11.1 10.6-21.1 21.7-21.7 38.3-.1 2.7.8 4.2 3.5 4.4 20.4 1.6 39.4-2.1 56.4-14 13.2-9.3 20.4-23.6 30.4-36.7zm-76.2 76.8c-1.5-.1-3.3-.3-5.1-.3-1.1 0-2.5-.6-3.2.7-.8 1.4.9 1.9 1.6 2.7 4.9 5.9 12 7.8 19 8.5 15.3 1.5 29.1-4.2 42.4-10.8 9.6-4.8 18.1-11.4 26.2-18.5 22.3-19.6 37.1-44.4 49.7-70.8.4-.9 1.2-1.9.5-2.8-.8-1-2.4-.7-3.2-.1-3.1 2.1-7 2.2-10.2 3.6-5.1 2.2-9.6 5-12.5 10.4-4.5 8.3-8.6 16.9-14.4 24.4-7.1 9.1-12.9 19.5-21.8 27.1-19.8 16.8-43 24.5-69 25.9zM196.7 806.3c-.1 2.6-1.1 5-1.4 7.4-3.5 23.4-14 43.2-30.4 60-11.8 12.1-25.8 20.8-40.9 28.1-8.8 4.2-9.7 6.6-6.1 15.6 1 2.4 2.2 3.2 4.5 2.3 12.3-5 24.9-9.3 35.5-17.6 14.5-11.3 25.8-25.4 34.2-41.9 7.5-14.6 9.3-29.8 7.4-45.8-.4-2.7-.3-5.7-2.8-8.1z"/><path d="M612.2 699.9c-14.2-.2-24.8-.1-34.6 4.9-14.7 7.4-22.8 19.3-24.3 35.8-1.5 16.3 5.4 30.4 12.4 44.2 12.7 24.9 21.1 51.3 27.4 78.4 3 12.9 3.5 26.2 1.4 39.5-2.8 17.2-13.2 27.2-29.4 32.2-25.3 7.9-48.5 3.5-70.4-10.7-19.6-12.7-38.5-26.4-58.6-38.3-13.4-7.9-27.9-10.5-43.6-9.3-14.6 1.1-28.4 4.8-39.5 14-19.4 16.2-35.9 34.9-42.2 60.4-3.5 14.3.2 27.8 5 41.1 5.7 15.9 13.2 31.2 16.9 47.7 2.8 12.6 4 25-4.3 36.7-9.4 13.2-27.4 15.3-39.4 4.4-7-6.4-10.2-14.6-13.1-23-5.2-14.9-12.2-28.6-21.8-41.1-11.6-14.9-33.5-17.6-50.2-5.9-10.6 7.5-19.7 16.7-28.8 25.8-11.2 11.1-21.9 22.7-34.4 32.5-18.3 14.3-38.8 20.2-61.8 15.6-10.3-2-16.4-9.4-20.1-18.8-6.8-17.5-4.7-34.1 4.6-50.3 8.4-14.6 21-24.7 33.8-34.9 9.7-7.7 17.4-17.4 20.3-29.8 1-4.1 3-5.7 6.6-6.9 15.8-5.1 31.2-11.3 45.1-20.7 17.3-11.7 29.8-27.7 40.6-45.3 4.7-7.6 8.2-15.7 10.7-24.2 1.4-4.9 2.6-9.9 3.1-15 1.2-12.7 1.4-25.5-2-37.9-4.6-16.3-14.9-28.1-31.1-33.9-26.1-9.2-49.5-2-71.5 12.8-10.6 7.1-20.4 15.1-28.3 25.3-1 1.3-2.4 1.7-4 1.4-1.1-.3-1-1.2-1-2 0-16.5 0-33 7-48.6 7.7-16.9 19.4-31 30.4-45.6 8.8-11.8 17.3-23.8 21.1-38.4.5-2 1.6-3 3.9-2.9 7.5.4 14.7-1.4 21.9-3.8 5.4-1.8 6.6-.6 6.1 4.9-.4 4.1-.8 8.2-2.6 12-2.9 6.5-.7 12.4 5 15.3 5.5 2.8 12.4-.4 15.3-6.6 4.5-9.7 5.4-20 5-30.5-.1-3.5 1.1-4.8 4.3-6 14.6-5.5 29.1-11.4 41.6-21.1 6.7-5.2 12.8-11.1 18.6-17.3 8.7-9.4 18.9-17.1 29.5-24.1 15.4-10.2 27.2-23.6 36.7-39.2 9.6-15.9 16.8-32.7 19.5-51.2 2.1-14.3-.1-27.7-6.4-40.8-8.2-17.1-21.5-27-39.4-31.3-14.3-3.4-28.2-1.2-41.7 4.1-5.5 2.2-11 4.2-15.9 7.8-2 1.4-5.2 2.3-5.4-1.8-.5-11.4-4.7-21.9-7.2-32.8-2.4-10.6-.6-20.8 2.2-30.9 3.7-13.1 10.5-24.5 22-32.6 3.5-2.4 7.2-2.9 11.1-3.5 11-1.5 20.6-6.5 30-11.9 7.8-4.4 15.7-8 24.5-10.1 9.6-2.3 19-5.3 28.5-8 1.2-.4 2.6-1.5 3.6-.2.9 1.1.1 2.6-.5 3.8-7.3 16.5-7.9 33.4-4.9 51 3.6 21.1 18.6 35.8 40.1 39.6 16.3 2.8 32.2.8 47.7-5.4 21.9-8.8 40.5-22.2 56.6-39.1 12.2-12.9 22.7-27.3 31.4-43 8.7-15.8 16.7-32 23.6-48.7.8-1.9 1.9-3 3.7-3.6 15.8-5.2 31.9-6.5 48.4-3.7 14.6 2.5 29.2 5.6 44.2 5.8 16.6.2 32.5-3.6 48.6-6.7 18.6-3.6 36.8-4 54.4 4.1 8.9 4.1 16.4 10.3 23.9 16.5 11.8 9.8 24.3 18.4 38.7 23.6 9.6 3.5 19.8 1.8 29.8-.1 3.2-.6 6.4-1.6 9.7-1.9 5.6-.4 10 1.3 14.2 5.6 8.9 8.9 19.8 14.5 32.3 17.1 16.3 3.3 32.2 8.1 48 13 8.5 2.6 17.1 4.8 25.7 7.2 1.4.4 3.4.2 3.4 2.8.1 15.1-.5 30.1-6.6 44.3-8.6 20.1-24.4 32.1-44.5 39.1-16.3 5.7-32.4 11.7-45.9 23-8.2 6.9-13.9 15.8-19.5 24.8-6.4 10.4-12.8 20.7-18.9 31.3-11.9 20.6-30.4 32.2-52.6 39-16.3 5-33.3 6.4-49.8 10.1-13.5 3-25.4 8.7-31 22.4-3.4 8.3-2.5 17.2-1.9 26 1.4 20.7 1.6 41.4-9.3 60.3-6.8 11.8-18 18.1-29.9 23-18 7.2-36.4 9.7-51.8 9.2zm146.7-329.8c.7-17.5-2-34.6-10.8-49.6-17-29-42.9-39.8-74.1-34.9-19 3-37.1 10-54.7 17.9-32.3 14.5-59.8 35.7-84.3 61.1-18.1 18.8-32.3 40-40.8 64.8-6.1 17.9-9.7 36.4-5.7 55.1 4 19 11.6 36.5 26.7 50 17.6 15.8 38.6 20.5 61.3 18.1 23.8-2.5 45.9-10.9 67.3-21.3 21.2-10.2 40.1-23.8 57.2-40.1 12.5-12 24.2-24.6 32.5-39.9 13.7-25.3 24.1-51.8 25.4-81.2zM437.1 576.8c-9.6-.4-18.8 1.5-27.7 4.6-16.3 5.5-31.4 13.4-45.2 23.6-19.4 14.2-40 27-54.4 47-16.7 23-27.9 47.7-26.5 77 .5 10.6 2.1 21 6.1 30.9 7 17.3 19.6 28.3 37.6 33.5 16.7 4.8 33.3 3.3 49.5-.9 21.9-5.7 42.9-13.8 61.5-27.2 14.2-10.3 28.1-20.8 37.8-35.8 10.3-15.9 18.6-32.8 23.7-51.1 4.2-15 6.4-30.2 3.8-45.6-5.7-33.7-35.2-56.8-66.2-56zM421.4 840c3.2.1 6.3-.1 9.5.1 8.6.5 16.4 2.7 22.9 8.9 7.5 7.2 14.3 15.1 22.4 21.7 15.8 13 33.4 21.9 53.3 26.5 5.8 1.3 11.2-1.5 13.1-6.8 2.1-5.9-.1-11.1-6.2-13.6-4.7-1.9-9.6-3.3-14.4-4.9-17.1-5.7-31.1-16.1-43.2-29.2-9.1-9.9-18.9-18.9-32.2-22.7-12.7-3.6-25.7-2.5-38.5-2-3.1.1-6.9 1.7-8.2 4.8-4.2 9.9 2.4 16.7 10.6 17.1 3.6.2 7.2.1 10.9.1zm147.9-193c-1.8 0-2.6-.1-3.4 0-10 1.2-14.9 8.9-10.7 16.9 2.5 4.7 6.7 6.1 11.6 6.1 8.5 0 16.8.9 25.3 1.9 12.2 1.4 24.2 4.6 36.8 3.5 15-1.3 26.8-7.3 35.3-19.7 3.3-4.7 2-11.8-2.7-15.4-4.8-3.6-10.7-2.6-14.5 2.4-4.4 5.7-9.8 9.7-17.3 10.2-7.8.5-15.6 0-23.3-1.4-12.6-2.4-25.3-3.3-37.1-4.5zM160.6 992.5c-.7-4.5-1.9-8.6-7.1-10-6.1-1.7-10.3-.8-13.4 4-3.4 5.2-6.7 10.6-9.6 16.1-3.4 6.4-6.8 12.7-11 18.6-5.4 7.4-13.2 11-21.7 13.6-6 1.9-8.7 7.6-7.2 13.3 1.6 5.9 7.4 10 13.1 8.8 13.6-2.8 24.9-9.7 33.4-20.4 9-11.5 14.9-25 22.1-37.7 1-1.9 1.5-4 1.4-6.3zm211.6-528.6c-.4 15.7 4.3 28.7 14.8 39.3 4.5 4.5 12.1 4.4 16.4.2 4.4-4.2 4.9-12 .6-16.4-6.4-6.5-8.1-14.5-8.5-23.1-.3-6 1.4-11.8 2.7-17.5 1.7-7.7-2-14.4-8.7-16.2-5.9-1.5-12.4 3.4-14.4 10.5-2.2 7.9-3 15.9-2.9 23.2zm411-111.1c-.7 15.6.2 30.6 12.4 42.7 5 5 12.1 6.2 17.2 1.8 5.1-4.3 5.4-12.1-.5-16.8-5.4-4.3-6.2-10-6.6-15.8-.4-5.1.2-10.3-.1-15.5-.4-6.2 2.2-12.4.1-18.7-1.3-3.9-5.8-8.2-9.9-8.4-4-.3-9.1 3.3-10.7 7.2-3 7.6-1.1 15.6-1.9 23.5zm-539 574.7c0 .9-.1 3.1 0 5.3.2 8.6 8.3 13.9 16 10.3 5.6-2.6 7.2-7.8 7.1-13.6-.4-14.8 2.5-28.9 8.7-42.4 2.9-6.4.5-12.8-5.4-15.4-5.8-2.5-12.5.1-15.3 6.2-7.1 15.3-10.9 31.5-11.1 49.6zm199.2-421.9v-3c-.1-6.7-4.7-11.8-11-12.2-6-.4-10.9 4-12.2 10.3-1 4.5-.2 9-1 13.3-3.3 17.1 3.8 30.8 20 37 7 2.7 14 .1 16.2-5.9 2.5-6.8-.6-12.9-8-15.7-3.5-1.3-5.1-3.5-5.1-7.4-.1-5.6.9-10.9 1.1-16.4zM237.6 751.1c7.8 0 13.3-8.3 10.2-15.8-1.8-4.2-2.5-8.5-2.4-13 .3-6.8 1.5-13.4 3.7-19.9 2.4-6.9-.6-12.7-7.5-15.5-5.2-2.1-11.1.7-14.2 6.6-.6 1.2-1.1 2.4-1.5 3.7-4.1 13.2-4.7 26.7-2.5 40.3 1.3 7.8 7.7 13.6 14.2 13.6zm562.9-294.2c-.1-7-4.5-11.6-10.2-12-5.8-.4-9.1 3.1-11.7 7.5-4.1 6.8-7.5 14.1-15.7 17.5-4 1.6-6.1 5.6-5.5 10.2.5 4.6 3.1 7.7 7.7 9.3 4 1.4 7.4.3 10.9-1.3 8.4-4 13.5-11.5 18.5-18.8 2.7-4.1 5.6-8.4 6-12.4zm42.9-74.6c0 10 4.3 15.3 11.4 15.7 6.7.3 12.3-4.5 12.3-11.9 0-7.3 1.4-14.1 3.5-20.9 2.1-6.8-.7-13.1-6.6-15.1-5.7-2-13.5 1.5-15.5 7.6-2.7 8.5-4.5 17.3-5.1 24.6zm-563-2.5v6.3c.2 6.9 4.7 11.1 11.8 11 6.3-.1 10.9-4.8 11.2-11.1.3-5.9.5-11.9 1.4-17.8 1.2-7.6-3-14-10.4-15.1-5.4-.8-12.6 4.9-12.9 11.2-.3 5.5-1.8 10.8-1.1 15.5z" fill="#f8db31"/><path class="st2" d="M736.6 64c-3.7 5.3-7 9.8-9.1 15.2-4 10-3.1 20.3-2.9 30.6.1 6.3 6.7 11.5 13.1 11 8.2-.6 13.3-6.3 12.5-14.7-.5-5.2.4-10.3 1-15.4.5-4.5 3.8-7.2 6.9-9.9 5.3-4.7 11.4-8.6 15.3-14.7.8-1.2 1.9-1.2 3.1-1.1 23.7 1.7 47.3 3.8 70.5 8.9 10.4 2.3 20 6.8 29.8 10.9 12.8 5.4 26.1 7.5 39.8 4.6 21.9-4.6 43.6-9.9 65.9-12.4 24.9-2.8 49-.5 72.3 9.1 2.6 1 5.5 1.2 8.1 3.6-6.8 1-13.4.3-19.9 1.1-20 2.3-38.2 9.3-55.7 19-21.8 12.1-37.4 30.2-52 49.9-12.2 16.4-18.2 34.5-19 54.6-.7 18.4 3.7 35.9 10.3 53 4.6 11.9 11.7 22.2 19.1 32.4 3.8 5.3 7.5 10.8 12.7 16.1-5.6.6-9.6-1.9-13.6-3.1-16-4.9-32.2-8.8-48.5-12.8-7.2-1.8-12.7-6.8-18-11.9-16.5-15.9-22.4-36-23-58.1-.5-16.3-.8-32.7 2-48.8 2.6-15.3 6.8-30.1 17.6-42.1 4.9-5.5 5.1-11.3 1-17.2-3-4.3-10.2-6.7-15.7-4-5.6 2.7-9 8.4-12.2 13.5-9.9 15.7-14.8 33.1-16.6 51.5-1.4 13.8-2.1 27.5-1.8 41.3.4 17.5 2.4 34.8 8.9 51.2 1.4 3.6-.1 4.2-2.8 5-13.5 4.3-24.8-.8-35.2-8.5-2.9-2.1-4.4-6.1-6.6-9.3-12.2-17.3-14.7-36.4-11.9-56.9 1.6-12 4.7-23.3 9.1-34.4 3.6-9.1-1.1-19-13.7-17.9-5.2.5-8.1 3.6-10.1 7.8-4.9 10.3-7.9 21.1-9.8 32.3-2.7 15.6-2.7 31.4-1.1 47.5-7.1-1.7-13.4-4.4-20.2-5.7-15.3-2.9-30.4-2.2-45.5.7-15.6 2.9-31.1 6.9-47.2 6.6-12.5-.2-24.6-3.3-37-4.8-3.7-.4-5.9-3.5-8.6-5.7-16.1-13.5-22.2-37.7-14.5-57.3 3-7.5.2-14.9-6.7-17.4-7.9-3-15.4 1.1-18.4 10.3-7.3 22-4 43.2 5.8 63.7 2.6 5.5 2.9 5.2-3.1 6.2-13.7 2.3-26.5 7.4-39.5 11.9-19.6 6.8-39.1 14-59.6 17.7-14.4 2.6-28.9 4.1-43.5 5.3-2.5.2-4-1.1-5.6-2.6-10.8-10.4-17.9-23.5-25.2-36.3-10.6-18.5-16.1-38.4-16.2-59.8 0-6.9 2.1-13.4 3.6-20 1.8-7.7-1.3-14-7.5-15.8-7.5-2.2-14.2 1.2-17.1 8.9-4.1 10.4-4.7 21.3-4.5 32.4.6 33.6 14.4 62.3 32.5 89.6 5.2 7.9 5.2 7.7-4 10-22.1 5.4-43.6 12.5-65.5 18.4-10.1 2.7-19.1 7.6-27.8 12.9-12.7 7.6-26.2 9.4-40.2 6.2-21.5-4.9-39.9-15.6-52.9-33.7-8.9-12.4-13.5-26.8-15.4-42-2.7-21.8-.1-42.5 10.2-62.3 14.2-27.5 37.1-42.4 66.8-47.9 3.9-.7 9-2.8 11.5-.7 3.1 2.6-.9 7.1-1.8 10.7-4.4 17.7-6.9 35.5-5.9 53.7 1.3 22.4 7 43.4 19.9 62.1 4.5 6.6 12.6 8 19.2 3.6 4.9-3.3 6.3-12.1 2.4-18-15.4-23.5-18.7-49.2-14.2-76.4 1.4-8.7 3.1-17.2 6-25.6 2.9-8.4 8.7-13.1 16.8-14.4 12.3-2 23.4-6.8 34.6-11.9 12.5-5.7 24.2-13.2 37.1-18 10.1-3.8 20.3-7.1 31.6-7.4-2.3 10.7-5.2 20.9-6 31.6-1 13.1.9 25.9 3.1 38.6.9 5.5 1.4 11.2 5.1 15.9 3.3 4.1 9.3 5.7 14.8 3.9 4.9-1.6 7.4-5.3 7.6-11.1.3-7.4-3-14.2-4-21.5-2.5-17.3-1.8-34 5.6-50.3 2.8-6.3 7.4-9.1 14-8.9 12.3.2 24.6.9 36.9.8 25.6-.2 51.1-2 76.5-5.5 23.8-3.3 47.4-8.3 71.3-10.9 2.1-.2 4.8-1.5 6 .3 1.1 1.6-1.2 3.5-2.2 5.2C625 95 621.7 116 621.7 137.7c0 11.1 2.7 22 6.3 32.5 2.6 7.6 9.5 10.4 17.4 7.7 6.3-2.2 9.6-8.9 7.1-15.9-8-22.4-6.3-44.4 2.5-66 5-12.2 13.5-21.5 24.3-29 2.6-1.8 5.8-1.8 8.6-1.9 15.9-.5 31.9-1.5 48.7-1.1zM609.4 723.8c14.1.1 28.3-.6 42-4.2 19.7-5.2 38.2-12.8 53.1-27.4 12.1-11.9 17.7-27 20.7-43.3 3-16.2 2-32.4 1.2-48.7-.7-12.3 2-15.4 14.2-17.9 9.1-1.8 18.4-2.7 27.5-4.6 20.4-4.1 40.4-9.7 58.1-21.1 15.7-10.1 27-24.4 36.3-40.3 7.8-13.3 15.1-26.8 24.5-39.1 6.6-8.6 16.2-13.1 25.8-17.2 11.9-5.1 24.3-8.7 35.8-14.8 16.2-8.6 28.4-21 36.9-37.2 8.3-15.7 11.4-32.4 11.8-49.8.1-6.1.1-5.9 6.2-5.4 15.7 1.2 31.4 3.1 47.3 1.6 1.3-.1 3.2-.4 2.3 1.8-4.4 11.4-6.1 23.8-12.6 34.4-7.1 11.7-17.3 20.6-27.3 29.6-15.7 14.1-31.6 27.9-45.7 43.8-17 19-35.8 36.1-54.7 53.2-10.7 9.7-20.9 19.9-31.5 29.7-14.2 13.1-27.3 27.2-41.4 40.3-14.2 13.1-27.4 27.2-41.3 40.6-18.9 18.2-37.7 36.6-56.8 54.6-13 12.3-26 24.7-39.5 36.5-20.2 17.6-40.4 35.1-61.8 51.2-12.9 9.7-26.2 18.9-39.7 27.7-1.6 1-2.5 1.5-3.2-.6-5.6-15.4-15-29-19.8-44.7-2.8-9.1-.9-16.9 5.9-23.6 3.9-3.8 9.1-4.5 14.2-4.9 3.8-.5 7.7-.2 11.5-.2z"/><path class="st2" d="M1144.5 215.5c-.1 19.5-1.5 36.1-6.7 52.3-3.9 12.2-11.6 21-21.2 28.6-10.8 8.6-22.3 16.2-33.7 23.9-10.3 7-22.4 8.5-34.3 8.3-16.1-.2-32.1-2.7-46.6-10.6-15-8.2-25.6-20.9-35.5-34.3-12.1-16.3-20.8-34-24-54.3-2.9-17.9 0-34.4 10.4-49.2 9.2-13 18.3-26.2 30.8-36.4 14.5-11.8 30.7-20.1 48.7-25.1 9.7-2.7 19.6-3.3 29.6-3 8.7.3 17.3-.6 25.8-1.8 7.6-1.1 13.6 1 19 6 7.2 6.8 13 14.6 17.3 23.6 1.7 3.5 3.8 6.4 6.2 9.4 5.1 6.4 7.2 14.4 9.2 22.3 3.6 14.2 5.9 28.4 5 40.3zm-82.4-61c-13.2-.7-26.3 1.6-34.9 6-19.6 10.2-34.1 25.3-40.8 46.7-5 16-3.4 31.7 5.8 45.8 7.1 10.9 14.2 21.7 20.2 33.2 7 13.4 18.7 19.1 33.4 19.7 15.6.7 29.8-2.6 42.9-11.6 6.8-4.7 9.6-11.2 5.8-18.1-3.2-5.8-11.4-7.7-18-3.4-7.1 4.7-14.5 7.8-23 8.5-10.9.9-17-.2-20.9-9-4.9-10.9-11.5-20.6-18.3-30.2-6.2-8.7-7.8-18.4-4.4-28 6.5-18.1 19.1-30.6 38.4-34.7 6.8-1.4 14-1.3 20.9-.2 4 .6 8.2 1.4 11.2 4.8 12.1 14 8.8 38.7-6.8 48.9-3.9 2.6-8.3 3.3-12.8 1-4-2.1-3-5.9-3.2-9.2-.1-3.7.1-7.3.1-11 0-7.4-4.3-12.2-11.3-12.5-7-.3-12.1 4-12.8 11.2-.7 8-1.1 16 .5 23.9.9 4.8 2.6 9.2 6 12.9 12.6 13.6 36.3 14.5 50.7 1.8 21.8-19.1 27.7-46.5 15.3-72.8-4.9-10.5-13-17.9-24.3-21.4-7.2-2.1-14.7-2.3-19.7-2.3z"/><path class="st3" d="M249.1 544.1v-12.9c0-5.7-2.4-10-7.6-12.4-4.8-2.2-9.5-1.2-13.6 1.6-3.5 2.3-4.1 6.3-4.3 10.1-.3 5.5.1 11-.1 16.5-.1 2.8.6 5.5 2.5 7.3 2.5 2.4 2.2 3.4-.3 5.7-8 7.4-16.2 14.8-23.5 22.9-10.9 12.1-24.7 17.8-40.4 20.1-2.5.4-4.8 1.1-7.2 1.8-2.7.8-3.7-.3-3.2-3.1 4.4-26.3 15-49.9 30.6-71.5 11-15.1 23.6-28.6 36.4-42.1 3.4-3.6 6.9-6.7 11.5-8.9 10.8-5.1 19.4-13.9 30.1-19.3 7.2-3.6 14.6-6.1 22.4-7.8 5.6-1.2 9.6 3.1 11.3 11.2 1.5 7.1-.4 14-2.5 20.5-3.8 11.6-7.8 23.2-13.9 33.9-6.5 11.5-16.2 19.6-28.2 26.4zm-40.7 3.2c.1-6-3.2-9.2-8-11.2-4.5-1.9-8.4-.7-11.7 2.8-2.8 3-5.5 6.2-8.2 9.4-4.6 5.3-4.2 12.4.8 17 4.4 4 11.6 3.7 16.2-1 3.1-3.2 6-6.7 8.6-10.3 1.5-2 2.7-4.4 2.3-6.7z"/><path class="st2" d="M396.8 899.9c11.9 0 20.6 2.9 28.6 7.8 5.9 3.6 11.6 7.6 17.6 11 2.9 1.7 2.7 2.8.5 4.6-6.4 5.2-12.7 10.6-19.2 15.8-14.4 11.6-28.9 23.2-43.4 34.8-10.6 8.5-21.2 17-31.9 25.4-1.4 1.1-3.4 3.6-4.9-.2-3.7-9.3-7.6-18.6-9.8-28.5-2.2-10.2.1-19.6 5.5-28.4 6.7-10.7 14.1-20.9 23.5-29.4 10.2-9 22.6-12.3 33.5-12.9zM161.6 1120.1c-3.8.3-6.9-1.7-9.6-3.7-5.3-3.9-10.5-8.1-14.4-13.6-1.4-2-1-2.7.8-3.7 15.3-8.3 28.2-19.7 40.4-32 11.5-11.5 22.3-23.9 35.3-33.8 11.5-8.7 17.6-7.4 25.6 4.7 5.4 8.1 9.1 17.2 13.1 26 .7 1.6-.1 2-1.1 2.7-18.9 13.3-36.8 28.1-57.2 39.3-9.5 5.2-18.6 11.4-29.5 13.5-1.2.2-2.3.4-3.4.6z"/><path class="st3" d="M94.2 858.8c1-16.6 5.8-29.7 16.1-40.4 10.9-11.2 22.4-21.6 37.3-27.3 6.4-2.5 13.1-3.4 19.8-4.1 2.7-.3 5.3.5 4.9 4-1.1 9-1.3 18-3.7 26.9-4.9 17.7-15 31.6-28.6 43.7-10 9-22.3 13.6-33.5 20.5-1 .6-2.3 1.1-2.9-.4-3.3-8.2-8.6-15.7-9.4-22.9zm28.2-.6c4.4.3 8-2.2 10.5-6.3 3.4-5.7 5.9-11.8 6.7-18.6 1-7.8-2.1-13.2-9.5-14.9-5.7-1.4-11.5 2.4-13.1 9.3-1.2 5.1-3 9.7-5.4 14.3-3.8 7.3 2 16.1 10.8 16.2zM319.9 469.3c6.2 11.1 7 21.8 4.5 32.7-5.2 22.9-15.9 43.1-32.4 59.9-6.1 6.3-13.6 11-20.8 15.9-10.3 7.1-19.5 15.3-28.2 24.4-8.3 8.8-17.7 16.2-28.7 21.7-13.2 6.6-27.5 9.7-41.1 15-6 2.3-12.2 4-18.5 5.5-3.3.8-4.4.5-4.4-3.2-.2-9 .4-8.8 12.9-12.4 10.3-2.9 21-3.6 30.9-8.2 13-6.1 23.3-15.6 32.9-26 10-10.9 20.8-20.8 34-27.6 23.3-12.1 38.6-30.9 47.4-55.5 3.9-11.1 8.7-21.8 10.3-33.6.3-2.4.6-4.8 1.2-8.6zM462 293.3c-10 13.2-17.2 27.5-30.5 36.8-17 11.9-36.1 15.6-56.4 14-2.7-.2-3.6-1.7-3.5-4.4.6-16.6 10.7-27.7 21.7-38.3.9-.8 2-1 3.2-1.1 21-2.4 41.9-4.9 62.8-7.3.6-.2 1.1 0 2.7.3zM385.8 370.1c26-1.3 49.2-9.1 68.9-25.9 8.9-7.6 14.7-17.9 21.8-27.1 5.9-7.5 9.9-16.1 14.4-24.4 3-5.4 7.5-8.2 12.5-10.4 3.3-1.4 7.1-1.5 10.2-3.6.9-.6 2.4-.9 3.2.1.7.8-.1 1.9-.5 2.8-12.6 26.4-27.4 51.2-49.7 70.8-8.1 7.1-16.6 13.7-26.2 18.5-13.3 6.6-27.1 12.3-42.4 10.8-7.1-.7-14.1-2.5-19-8.5-.7-.8-2.3-1.3-1.6-2.7.7-1.2 2.1-.7 3.2-.7 1.9 0 3.7.2 5.2.3zM196.7 806.3c2.4 2.3 2.4 5.4 2.7 8.2 1.8 15.9 0 31.2-7.4 45.8-8.4 16.5-19.7 30.6-34.2 41.9-10.5 8.2-23.2 12.6-35.5 17.6-2.2.9-3.5.2-4.5-2.3-3.6-9-2.7-11.4 6.1-15.6 15.1-7.2 29.1-16 40.9-28.1 16.4-16.8 26.9-36.6 30.4-60 .5-2.5 1.4-4.8 1.5-7.5z"/><path class="st4" d="M758.9 370.1c-1.3 29.4-11.7 56-25.5 81.4-8.3 15.3-20 27.9-32.5 39.9-17 16.3-35.9 29.9-57.2 40.1-21.4 10.3-43.5 18.7-67.3 21.3-22.7 2.4-43.7-2.4-61.3-18.1-15-13.5-22.7-31-26.7-50-3.9-18.7-.4-37.2 5.7-55.1 8.5-24.8 22.7-46 40.8-64.8 24.5-25.4 52-46.7 84.3-61.2 17.5-7.9 35.7-14.9 54.7-17.9 31.1-4.9 57 5.9 74.1 34.9 8.9 14.9 11.5 32 10.9 49.5zM545.5 497.9c7.5.6 14.3-1.4 21.2-3.5 10.8-3.3 21-8.2 31.5-12.6 28.7-12 52.8-30.4 71.9-54.7 18-22.8 29.5-49.5 41.8-75.6 11.1-23.6-13.8-48.5-33.4-43.1-2.1.6-4.4.8-6.5 1.4-17.1 4.9-34 10.4-50 18.2-19.4 9.5-36.5 22.3-52.9 36.2-16.8 14.2-30.8 30.6-42 49.5-8.9 15.1-14.9 31.3-16.2 48.7-1.3 18 .1 24.4 15.5 31.7 6 3 12.5 4.6 19.1 3.8zm-3.2 25.7c.2.2.5.6.9.8 1.2.6 2.4 1.1 3.6 1.5 14 5 28.1 3.9 42 .3 32.1-8.3 61.3-22.1 86.5-44.2 16.9-14.8 31.9-30.7 41.6-51.1 7.6-16 14.2-32.4 17-50 .9-5.5.9-11.1 1.3-16.7-1.2.6-1.7 1.2-2.1 2-6.3 14.4-13.7 28.3-20.9 42.2-7.9 15.2-17.1 29.6-28.4 42.3-13.8 15.4-29 29.6-47.3 39.8-29.4 16.3-59.2 32-94.2 33.1zM437.1 576.8c31.1-.8 60.6 22.3 66.2 55.8 2.6 15.4.4 30.6-3.8 45.6-5.2 18.3-13.4 35.2-23.7 51.1-9.7 15-23.6 25.5-37.8 35.8-18.6 13.4-39.7 21.5-61.5 27.2-16.2 4.2-32.8 5.7-49.5.9-18-5.2-30.6-16.2-37.6-33.5-4-9.9-5.6-20.2-6.1-30.9-1.4-29.2 9.8-54 26.5-77 14.5-19.9 35-32.8 54.4-47 13.8-10.1 28.9-18.1 45.2-23.6 8.9-2.9 18.1-4.8 27.7-4.4zm-104.9 153c6.2.4 12.2-.3 18.1-1.4 14.3-2.7 26.8-9.7 39.2-17 23.6-14.1 44-31.6 58.4-55.3 8.2-13.5 14-27.9 14.9-44 .1-2.8-.7-4.5-3.2-6.1-10.5-6.5-21.8-7.7-33.6-5-12.7 2.9-24.7 7.7-35.8 14.8-20.9 13.4-41.8 26.9-58.3 45.7-14.4 16.5-23.6 35.6-24.8 58.1-.2 4.5 1.5 6.8 5.6 7.9 6.4 1.8 13 2.5 19.5 2.3zm148.1-82.7c-.5.1-.8.1-.8.2-.4.7-.8 1.4-1.1 2.1-6.1 14.9-14.6 28.3-25.1 40.5-14.5 16.9-31.7 30.6-50.8 42-12.7 7.5-25.7 14.5-40.1 18.5-14.9 4.1-29.8 4.4-45 2.8-1.5-.2-3.6-1-4.5.8-.8 1.7.6 3.2 1.5 4.5 3.5 5.1 8.3 8.6 14 10.9 12.1 5 24.5 3.9 36.8 1.7 17-3.1 32.8-9.6 47.8-18 14.6-8.2 28.8-17.4 39.2-30.8 14.5-18.7 23.4-40 27.9-63.2.7-3.9 2-8 .2-12zM421.4 840c-3.7 0-7.3.1-11 0-8.2-.4-14.8-7.2-10.6-17.1 1.3-3.1 5-4.7 8.2-4.8 12.9-.5 25.9-1.7 38.5 2 13.3 3.8 23.1 12.8 32.2 22.7 12.1 13.1 26.1 23.5 43.2 29.2 4.8 1.6 9.7 3 14.4 4.9 6.1 2.5 8.3 7.7 6.2 13.6-1.8 5.2-7.3 8.1-13.1 6.8-19.9-4.6-37.5-13.5-53.3-26.5-8.1-6.7-14.9-14.6-22.4-21.7-6.5-6.2-14.3-8.4-22.9-8.9-3.1-.3-6.2-.2-9.4-.2zM569.3 647c11.7 1.2 24.4 2.2 36.9 4.4 7.7 1.4 15.5 1.9 23.3 1.4 7.5-.5 12.9-4.4 17.3-10.2 3.9-5.1 9.8-6.1 14.5-2.4 4.7 3.6 6 10.7 2.7 15.4-8.5 12.4-20.3 18.4-35.3 19.7-12.6 1.1-24.6-2.1-36.8-3.5-8.4-1-16.8-1.8-25.3-1.9-4.8 0-9.1-1.4-11.6-6.1-4.2-7.9.7-15.7 10.7-16.9 1 0 1.9.1 3.6.1zM160.6 992.5c.2 2.3-.4 4.4-1.5 6.3-7.2 12.7-13 26.2-22.1 37.7-8.4 10.7-19.8 17.6-33.4 20.4-5.7 1.2-11.4-2.9-13.1-8.8-1.6-5.7 1.2-11.4 7.2-13.3 8.5-2.7 16.3-6.2 21.7-13.6 4.2-5.8 7.6-12.2 11-18.6 2.9-5.5 6.2-10.8 9.6-16.1 3.1-4.8 7.3-5.7 13.4-4 5.3 1.4 6.4 5.5 7.2 10zM372.2 463.9c-.1-7.3.7-15.3 3-23.2 2-7.1 8.5-12.1 14.4-10.5 6.7 1.8 10.4 8.5 8.7 16.2-1.3 5.8-2.9 11.6-2.7 17.5.4 8.5 2 16.6 8.5 23.1 4.4 4.4 3.8 12.2-.6 16.4-4.4 4.2-12 4.3-16.4-.2-10.6-10.6-15.3-23.6-14.9-39.3zM783.2 352.8c.8-7.8-1.1-15.9 1.9-23.6 1.5-3.9 6.6-7.5 10.7-7.2 4.1.3 8.6 4.5 9.9 8.4 2.1 6.3-.5 12.5-.1 18.7.3 5.1-.3 10.4.1 15.5.5 5.9 1.2 11.5 6.6 15.8 5.9 4.7 5.6 12.5.5 16.8-5.2 4.4-12.2 3.2-17.2-1.8-12.2-12-13.1-27-12.4-42.6z"/><path class="st0" d="M244.2 927.5c.2-18.2 4-34.3 11.1-49.7 2.8-6.1 9.5-8.7 15.3-6.2 5.9 2.6 8.3 9 5.4 15.4-6.2 13.5-9.1 27.6-8.7 42.4.1 5.8-1.5 11-7.1 13.6-7.8 3.7-15.8-1.6-16-10.3v-5.2z"/><path class="st4" d="M443.4 505.6c-.1 5.5-1.2 10.8-1.1 16.4 0 4 1.7 6.1 5.1 7.4 7.4 2.8 10.4 8.9 8 15.7-2.2 6-9.2 8.6-16.2 5.9-16.2-6.2-23.3-19.9-20-37 .8-4.4 0-8.9 1-13.3 1.3-6.3 6.2-10.7 12.2-10.3 6.3.4 10.9 5.5 11 12.2v3z"/><path class="st0" d="M237.6 751.1c-6.5 0-12.8-5.8-14.1-13.6-2.2-13.6-1.6-27.1 2.5-40.3.4-1.3.9-2.5 1.5-3.7 3-6 9-8.7 14.2-6.6 6.9 2.8 9.8 8.5 7.5 15.5-2.2 6.5-3.4 13-3.7 19.9-.2 4.5.6 8.8 2.4 13 3 7.5-2.5 15.8-10.3 15.8zM800.5 456.9c-.4 4-3.3 8.3-6.1 12.4-5 7.3-10.1 14.7-18.5 18.8-3.4 1.7-6.9 2.7-10.9 1.3-4.6-1.6-7.2-4.7-7.7-9.3-.5-4.6 1.5-8.5 5.5-10.2 8.2-3.4 11.6-10.7 15.7-17.5 2.7-4.4 5.9-7.9 11.7-7.5 5.7.4 10.2 5 10.3 12zM843.4 382.3c.7-7.4 2.4-16.1 5.2-24.6 2-6.1 9.7-9.6 15.5-7.6 5.8 2 8.6 8.3 6.6 15.1-2.1 6.8-3.5 13.6-3.5 20.9 0 7.4-5.6 12.3-12.3 11.9-7.2-.3-11.5-5.7-11.5-15.7z"/><path class="st4" d="M280.4 379.8c-.6-4.7.9-10.1 1.2-15.5.3-6.3 7.5-12.1 12.9-11.2 7.4 1.1 11.5 7.5 10.4 15.1-.9 5.9-1.1 11.8-1.4 17.8-.3 6.3-4.9 11.1-11.2 11.1-7.1.1-11.6-4.1-11.8-11-.2-1.8-.1-3.6-.1-6.3zM1062.1 154.5c5 0 12.5.2 19.7 2.5 11.3 3.4 19.4 10.9 24.3 21.4 12.4 26.3 6.5 53.7-15.3 72.8-14.5 12.7-38.1 11.8-50.7-1.8-3.4-3.7-5.1-8.1-6-12.9-1.5-7.9-1.2-15.9-.5-23.9.7-7.2 5.8-11.5 12.8-11.2 7 .3 11.3 5 11.3 12.5 0 3.7-.2 7.3-.1 11 .1 3.4-.9 7.1 3.2 9.2 4.5 2.3 8.8 1.6 12.8-1 15.6-10.1 18.9-34.8 6.8-48.9-2.9-3.4-7.2-4.2-11.2-4.8-6.9-1.1-14.1-1.2-20.9.2-19.4 4-31.9 16.5-38.4 34.7-3.4 9.5-1.8 19.3 4.4 28 6.8 9.6 13.5 19.4 18.3 30.2 4 8.9 10 10 20.9 9 8.5-.7 15.9-3.9 23-8.5 6.6-4.4 14.8-2.4 18 3.4 3.7 6.9 1 13.4-5.8 18.1-13 9-27.3 12.3-42.9 11.6-14.7-.7-26.4-6.3-33.4-19.7-6-11.5-13.1-22.3-20.2-33.2-9.2-14.1-10.8-29.8-5.8-45.8 6.7-21.4 21.1-36.5 40.8-46.7 8.6-4.7 21.7-6.9 34.9-6.2zM208.4 547.3c.4 2.3-.8 4.6-2.2 6.6-2.6 3.6-5.5 7.1-8.6 10.3-4.6 4.7-11.9 5-16.2 1-5-4.5-5.3-11.6-.8-17 2.7-3.2 5.4-6.3 8.2-9.4 3.2-3.5 7.2-4.7 11.7-2.8 4.7 2.1 8 5.3 7.9 11.3z"/><path class="st0" d="M122.4 858.2c-8.8 0-14.6-8.8-10.8-16.2 2.4-4.6 4.2-9.2 5.4-14.3 1.6-6.9 7.5-10.7 13.1-9.3 7.4 1.8 10.5 7.2 9.5 14.9-.9 6.8-3.3 12.8-6.7 18.6-2.5 4.1-6 6.5-10.5 6.3z"/><path class="st3" d="M545.5 497.9c-6.6.8-13.1-.8-19.2-3.7-15.4-7.4-16.8-13.7-15.5-31.7 1.3-17.5 7.3-33.7 16.2-48.7 11.2-18.9 25.2-35.4 42-49.5 16.4-13.9 33.5-26.8 52.9-36.2 16-7.8 32.9-13.2 50-18.2 2.1-.6 4.5-.9 6.5-1.4 19.5-5.4 44.5 19.5 33.4 43.1-12.3 26.2-23.8 52.8-41.8 75.6-19.1 24.3-43.2 42.7-71.9 54.7-10.4 4.4-20.6 9.3-31.5 12.6-6.8 2-13.6 4-21.1 3.4zm29.8-80.2c-.1-6.6-3.8-11.2-9.1-12.4-5.1-1.2-10.1 1.1-12.5 6.7-3 7-5.3 14.3-8.1 21.4-1.9 4.7-.4 10.8 3.7 13.7 4.4 3.1 11.2 2.8 14.5-1.4 6.7-8.6 8.5-19.2 11.5-28zm46.8-20.8c-2.5 0-5.6 1.8-7.9 5.3-4.5 6.7-7.6 14-10.1 21.7-1.8 5.6 1.3 11.9 6.6 13.9 6.1 2.2 12.9-.2 14.9-6.2 2.1-6.4 5.2-12.2 8.2-18.1 3.7-7.5-1.9-16.5-11.7-16.6zm-7.7-46.9c-5.4-.1-10 3.3-11.6 9.1-.9 3.2-2.4 6.2-4.1 9-3.9 6.4-3.1 11.8 2.4 15.7 5.4 3.9 11.9 2.9 16.3-2.7 3.8-4.9 6.4-10.5 7.9-16.5 1.8-7.4-3.6-14.4-10.9-14.6z"/><path class="st3" d="M542.3 523.6c35-1.1 64.8-16.8 94.3-33.3 18.3-10.2 33.5-24.3 47.3-39.8 11.4-12.7 20.5-27.1 28.4-42.3 7.3-13.9 14.6-27.8 20.9-42.2.3-.7.9-1.4 2.1-2-.4 5.6-.5 11.2-1.3 16.7-2.8 17.6-9.4 34-17 50-9.7 20.4-24.7 36.4-41.6 51.1-25.3 22.1-54.5 35.9-86.5 44.2-13.9 3.6-28 4.8-42-.3-1.2-.4-2.5-1-3.6-1.5-.5 0-.8-.4-1-.6zM332.2 729.8c-6.5.2-13.1-.5-19.6-2.3-4.1-1.1-5.9-3.4-5.6-7.9 1.1-22.4 10.3-41.6 24.8-58.1 16.5-18.8 37.4-32.3 58.3-45.7 11.1-7.1 23-11.9 35.8-14.8 11.8-2.7 23.1-1.5 33.6 5 2.5 1.5 3.4 3.2 3.2 6.1-.8 16.1-6.7 30.4-14.9 44-14.4 23.8-34.8 41.3-58.4 55.3-12.3 7.3-24.8 14.3-39.2 17-5.8 1.1-11.8 1.8-18 1.4zm81.4-81.3c0-7.1-.9-12.3-5.7-15.2-4.2-2.5-8.9-2.1-13.1.9-2.4 1.7-8 19-7 21.9 2.1 5.9 9.7 12.2 17.3 6.7 5.4-4 8.2-9.4 8.5-14.3zm-46.1 35.7c0-5.4-3-9.6-8.1-11.2-4.2-1.3-9.5.4-12.1 4.7-2.1 3.4-4.4 6.6-6.4 10-4.3 7.3.7 15.6 9.1 16.6 7.1.8 18-13.3 17.5-20.1z"/><path class="st3" d="M480.3 647.1c1.8 4 .5 8.1-.2 12-4.4 23.2-13.3 44.5-27.9 63.2-10.5 13.4-24.6 22.6-39.2 30.8-15 8.4-30.8 14.9-47.8 18-12.3 2.3-24.8 3.3-36.8-1.7-5.6-2.3-10.4-5.8-14-10.9-.9-1.3-2.3-2.8-1.5-4.5.9-1.9 3-1 4.5-.8 15.2 1.6 30.1 1.3 45-2.8 14.5-4 27.4-11 40.1-18.5 19.1-11.3 36.3-25.1 50.8-42 10.5-12.2 19-25.6 25.1-40.5.3-.7.7-1.4 1.1-2.1 0-.1.3-.1.8-.2z"/><path class="st0" d="M575.3 417.7c-3 8.8-4.7 19.5-11.5 28-3.3 4.2-10.1 4.5-14.5 1.4-4.1-3-5.6-9-3.7-13.7 2.8-7.1 5.1-14.4 8.1-21.4 2.4-5.5 7.4-7.9 12.5-6.7 5.2 1.2 9 5.8 9.1 12.4zM622.1 396.9c9.8 0 15.4 9 11.7 16.5-2.9 5.9-6.1 11.8-8.2 18.1-2 5.9-8.8 8.4-14.9 6.2-5.3-1.9-8.3-8.3-6.6-13.9 2.4-7.6 5.6-14.9 10.1-21.7 2.3-3.3 5.4-5.1 7.9-5.2zM614.4 350c7.3.1 12.7 7.1 10.8 14.6-1.5 6-4.1 11.6-7.9 16.5-4.4 5.6-10.9 6.6-16.3 2.7-5.4-3.9-6.2-9.3-2.4-15.7 1.7-2.8 3.2-5.8 4.1-9 1.7-5.7 6.2-9.1 11.7-9.1zM413.6 648.5c-.3 4.9-3.2 10.3-8.5 14.1-7.6 5.5-15.3-.7-17.3-6.7-1-2.8 4.6-20.2 7-21.9 4.2-2.9 8.9-3.4 13.1-.9 4.8 3.1 5.8 8.4 5.7 15.4zM367.5 684.2c.5 6.7-10.3 20.8-17.6 20-8.4-1-13.4-9.3-9.1-16.6 2-3.4 4.3-6.6 6.4-10 2.6-4.3 8-6 12.1-4.7 5.2 1.7 8.2 5.9 8.2 11.3z"/></svg>